<svg xmlns="http://www.w3.org/2000/svg" version="1.1" xmlns:xlink="http://www.w3.org/1999/xlink" xmlns:svgjs="http://svgjs.com/svgjs" width="1440" height="560" preserveAspectRatio="none" viewBox="0 0 1440 560"><g mask="url(&quot;#SvgjsMask1000&quot;)" fill="none"><rect width="1440" height="560" x="0" y="0" fill="#0e2a47"></rect><path d="M122.83 90.15L187.79 127.65L187.79 202.65L122.83 240.15L57.88 202.65L57.88 127.65zM57.88 202.65L122.83 240.15L122.83 315.15L57.88 352.65L-7.07 315.15L-7.07 240.15zM57.88 427.65L122.83 465.15L122.83 540.15L57.88 577.65L-7.07 540.15L-7.07 465.15zM122.83 540.15L187.79 577.65L187.79 652.65L122.83 690.15L57.88 652.65L57.88 577.65zM187.79 202.65L252.74 240.15L252.74 315.15L187.79 352.65L122.83 315.15L122.83 240.15zM317.69 427.65L382.65 465.15L382.65 540.15L317.69 577.65L252.74 540.15L252.74 465.15zM382.65 540.15L447.6 577.65L447.6 652.65L382.65 690.15L317.69 652.65L317.69 577.65zM447.6 202.65L512.56 240.15L512.56 315.15L447.6 352.65L382.65 315.15L382.65 240.15zM447.6 427.65L512.56 465.15L512.56 540.15L447.6 577.65L382.65 540.15L382.65 465.15zM512.56 540.15L577.51 577.65L577.51 652.65L512.56 690.15L447.6 652.65L447.6 577.65zM707.42 -22.35L772.37 15.15L772.37 90.15L707.42 127.65L642.46 90.15L642.46 15.15zM772.37 90.15L837.33 127.65L837.33 202.65L772.37 240.15L707.42 202.65L707.42 127.65zM707.42 427.65L772.37 465.15L772.37 540.15L707.42 577.65L642.46 540.15L642.46 465.15zM772.37 540.15L837.33 577.65L837.33 652.65L772.37 690.15L707.42 652.65L707.42 577.65zM837.32 -22.35L902.28 15.15L902.28 90.15L837.32 127.65L772.37 90.15L772.37 15.15zM902.28 90.15L967.23 127.65L967.23 202.65L902.28 240.15L837.32 202.65L837.32 127.65zM1032.19 90.15L1097.14 127.65L1097.14 202.65L1032.19 240.15L967.23 202.65L967.23 127.65zM1032.19 540.15L1097.14 577.65L1097.14 652.65L1032.19 690.15L967.23 652.65L967.23 577.65zM1097.14 -22.35L1162.09 15.15L1162.09 90.15L1097.14 127.65L1032.19 90.15L1032.19 15.15zM1162.09 90.15L1227.05 127.65L1227.05 202.65L1162.09 240.15L1097.14 202.65L1097.14 127.65zM1097.14 202.65L1162.09 240.15L1162.09 315.15L1097.14 352.65L1032.19 315.15L1032.19 240.15zM1162.09 540.15L1227.05 577.65L1227.05 652.65L1162.09 690.15L1097.14 652.65L1097.14 577.65zM1227.05 -22.35L1292 15.15L1292 90.15L1227.05 127.65L1162.09 90.15L1162.09 15.15zM1292 90.15L1356.95 127.65L1356.95 202.65L1292 240.15L1227.05 202.65L1227.05 127.65zM1292 315.15L1356.95 352.65L1356.95 427.65L1292 465.15L1227.05 427.65L1227.05 352.65zM1292 540.15L1356.95 577.65L1356.95 652.65L1292 690.15L1227.05 652.65L1227.05 577.65zM1421.91 90.15L1486.86 127.65L1486.86 202.65L1421.91 240.15L1356.96 202.65L1356.96 127.65zM1356.96 427.65L1421.91 465.15L1421.91 540.15L1356.96 577.65L1292 540.15L1292 465.15zM1421.91 540.15L1486.86 577.65L1486.86 652.65L1421.91 690.15L1356.96 652.65L1356.96 577.65zM1551.82 315.15L1616.77 352.65L1616.77 427.65L1551.82 465.15L1486.86 427.65L1486.86 352.65zM1486.86 427.65L1551.82 465.15L1551.82 540.15L1486.86 577.65L1421.91 540.15L1421.91 465.15zM1551.82 540.15L1616.77 577.65L1616.77 652.65L1551.82 690.15L1486.86 652.65L1486.86 577.65z" stroke="#03305d" stroke-width="2"></path><path d="M115.33 90.15 a7.5 7.5 0 1 0 15 0 a7.5 7.5 0 1 0 -15 0zM180.29 127.65 a7.5 7.5 0 1 0 15 0 a7.5 7.5 0 1 0 -15 0zM180.29 202.65 a7.5 7.5 0 1 0 15 0 a7.5 7.5 0 1 0 -15 0zM115.33 240.15 a7.5 7.5 0 1 0 15 0 a7.5 7.5 0 1 0 -15 0zM50.38 202.65 a7.5 7.5 0 1 0 15 0 a7.5 7.5 0 1 0 -15 0zM50.38 127.65 a7.5 7.5 0 1 0 15 0 a7.5 7.5 0 1 0 -15 0zM115.33 315.15 a7.5 7.5 0 1 0 15 0 a7.5 7.5 0 1 0 -15 0zM50.38 352.65 a7.5 7.5 0 1 0 15 0 a7.5 7.5 0 1 0 -15 0zM-14.57 315.15 a7.5 7.5 0 1 0 15 0 a7.5 7.5 0 1 0 -15 0zM-14.57 240.15 a7.5 7.5 0 1 0 15 0 a7.5 7.5 0 1 0 -15 0zM50.38 427.65 a7.5 7.5 0 1 0 15 0 a7.5 7.5 0 1 0 -15 0zM115.33 465.15 a7.5 7.5 0 1 0 15 0 a7.5 7.5 0 1 0 -15 0zM115.33 540.15 a7.5 7.5 0 1 0 15 0 a7.5 7.5 0 1 0 -15 0zM50.38 577.65 a7.5 7.5 0 1 0 15 0 a7.5 7.5 0 1 0 -15 0zM-14.57 540.15 a7.5 7.5 0 1 0 15 0 a7.5 7.5 0 1 0 -15 0zM-14.57 465.15 a7.5 7.5 0 1 0 15 0 a7.5 7.5 0 1 0 -15 0zM180.29 577.65 a7.5 7.5 0 1 0 15 0 a7.5 7.5 0 1 0 -15 0zM180.29 652.65 a7.5 7.5 0 1 0 15 0 a7.5 7.5 0 1 0 -15 0zM115.33 690.15 a7.5 7.5 0 1 0 15 0 a7.5 7.5 0 1 0 -15 0zM50.38 652.65 a7.5 7.5 0 1 0 15 0 a7.5 7.5 0 1 0 -15 0zM245.24 240.15 a7.5 7.5 0 1 0 15 0 a7.5 7.5 0 1 0 -15 0zM245.24 315.15 a7.5 7.5 0 1 0 15 0 a7.5 7.5 0 1 0 -15 0zM180.29 352.65 a7.5 7.5 0 1 0 15 0 a7.5 7.5 0 1 0 -15 0zM310.19 427.65 a7.5 7.5 0 1 0 15 0 a7.5 7.5 0 1 0 -15 0zM375.15 465.15 a7.5 7.5 0 1 0 15 0 a7.5 7.5 0 1 0 -15 0zM375.15 540.15 a7.5 7.5 0 1 0 15 0 a7.5 7.5 0 1 0 -15 0zM310.19 577.65 a7.5 7.5 0 1 0 15 0 a7.5 7.5 0 1 0 -15 0zM245.24 540.15 a7.5 7.5 0 1 0 15 0 a7.5 7.5 0 1 0 -15 0zM245.24 465.15 a7.5 7.5 0 1 0 15 0 a7.5 7.5 0 1 0 -15 0zM440.1 577.65 a7.5 7.5 0 1 0 15 0 a7.5 7.5 0 1 0 -15 0zM440.1 652.65 a7.5 7.5 0 1 0 15 0 a7.5 7.5 0 1 0 -15 0zM375.15 690.15 a7.5 7.5 0 1 0 15 0 a7.5 7.5 0 1 0 -15 0zM310.19 652.65 a7.5 7.5 0 1 0 15 0 a7.5 7.5 0 1 0 -15 0zM440.1 202.65 a7.5 7.5 0 1 0 15 0 a7.5 7.5 0 1 0 -15 0zM505.06 240.15 a7.5 7.5 0 1 0 15 0 a7.5 7.5 0 1 0 -15 0zM505.06 315.15 a7.5 7.5 0 1 0 15 0 a7.5 7.5 0 1 0 -15 0zM440.1 352.65 a7.5 7.5 0 1 0 15 0 a7.5 7.5 0 1 0 -15 0zM375.15 315.15 a7.5 7.5 0 1 0 15 0 a7.5 7.5 0 1 0 -15 0zM375.15 240.15 a7.5 7.5 0 1 0 15 0 a7.5 7.5 0 1 0 -15 0zM440.1 427.65 a7.5 7.5 0 1 0 15 0 a7.5 7.5 0 1 0 -15 0zM505.06 465.15 a7.5 7.5 0 1 0 15 0 a7.5 7.5 0 1 0 -15 0zM505.06 540.15 a7.5 7.5 0 1 0 15 0 a7.5 7.5 0 1 0 -15 0zM570.01 577.65 a7.5 7.5 0 1 0 15 0 a7.5 7.5 0 1 0 -15 0zM570.01 652.65 a7.5 7.5 0 1 0 15 0 a7.5 7.5 0 1 0 -15 0zM505.06 690.15 a7.5 7.5 0 1 0 15 0 a7.5 7.5 0 1 0 -15 0zM699.92 -22.35 a7.5 7.5 0 1 0 15 0 a7.5 7.5 0 1 0 -15 0zM764.87 15.15 a7.5 7.5 0 1 0 15 0 a7.5 7.5 0 1 0 -15 0zM764.87 90.15 a7.5 7.5 0 1 0 15 0 a7.5 7.5 0 1 0 -15 0zM699.92 127.65 a7.5 7.5 0 1 0 15 0 a7.5 7.5 0 1 0 -15 0zM634.96 90.15 a7.5 7.5 0 1 0 15 0 a7.5 7.5 0 1 0 -15 0zM634.96 15.15 a7.5 7.5 0 1 0 15 0 a7.5 7.5 0 1 0 -15 0zM829.83 127.65 a7.5 7.5 0 1 0 15 0 a7.5 7.5 0 1 0 -15 0zM829.83 202.65 a7.5 7.5 0 1 0 15 0 a7.5 7.5 0 1 0 -15 0zM764.87 240.15 a7.5 7.5 0 1 0 15 0 a7.5 7.5 0 1 0 -15 0zM699.92 202.65 a7.5 7.5 0 1 0 15 0 a7.5 7.5 0 1 0 -15 0zM699.92 427.65 a7.5 7.5 0 1 0 15 0 a7.5 7.5 0 1 0 -15 0zM764.87 465.15 a7.5 7.5 0 1 0 15 0 a7.5 7.5 0 1 0 -15 0zM764.87 540.15 a7.5 7.5 0 1 0 15 0 a7.5 7.5 0 1 0 -15 0zM699.92 577.65 a7.5 7.5 0 1 0 15 0 a7.5 7.5 0 1 0 -15 0zM634.96 540.15 a7.5 7.5 0 1 0 15 0 a7.5 7.5 0 1 0 -15 0zM634.96 465.15 a7.5 7.5 0 1 0 15 0 a7.5 7.5 0 1 0 -15 0zM829.83 577.65 a7.5 7.5 0 1 0 15 0 a7.5 7.5 0 1 0 -15 0zM829.83 652.65 a7.5 7.5 0 1 0 15 0 a7.5 7.5 0 1 0 -15 0zM764.87 690.15 a7.5 7.5 0 1 0 15 0 a7.5 7.5 0 1 0 -15 0zM699.92 652.65 a7.5 7.5 0 1 0 15 0 a7.5 7.5 0 1 0 -15 0zM829.82 -22.35 a7.5 7.5 0 1 0 15 0 a7.5 7.5 0 1 0 -15 0zM894.78 15.15 a7.5 7.5 0 1 0 15 0 a7.5 7.5 0 1 0 -15 0zM894.78 90.15 a7.5 7.5 0 1 0 15 0 a7.5 7.5 0 1 0 -15 0zM829.82 127.65 a7.5 7.5 0 1 0 15 0 a7.5 7.5 0 1 0 -15 0zM959.73 127.65 a7.5 7.5 0 1 0 15 0 a7.5 7.5 0 1 0 -15 0zM959.73 202.65 a7.5 7.5 0 1 0 15 0 a7.5 7.5 0 1 0 -15 0zM894.78 240.15 a7.5 7.5 0 1 0 15 0 a7.5 7.5 0 1 0 -15 0zM829.82 202.65 a7.5 7.5 0 1 0 15 0 a7.5 7.5 0 1 0 -15 0zM1024.69 90.15 a7.5 7.5 0 1 0 15 0 a7.5 7.5 0 1 0 -15 0zM1089.64 127.65 a7.5 7.5 0 1 0 15 0 a7.5 7.5 0 1 0 -15 0zM1089.64 202.65 a7.5 7.5 0 1 0 15 0 a7.5 7.5 0 1 0 -15 0zM1024.69 240.15 a7.5 7.5 0 1 0 15 0 a7.5 7.5 0 1 0 -15 0zM1024.69 540.15 a7.5 7.5 0 1 0 15 0 a7.5 7.5 0 1 0 -15 0zM1089.64 577.65 a7.5 7.5 0 1 0 15 0 a7.5 7.5 0 1 0 -15 0zM1089.64 652.65 a7.5 7.5 0 1 0 15 0 a7.5 7.5 0 1 0 -15 0zM1024.69 690.15 a7.5 7.5 0 1 0 15 0 a7.5 7.5 0 1 0 -15 0zM959.73 652.65 a7.5 7.5 0 1 0 15 0 a7.5 7.5 0 1 0 -15 0zM959.73 577.65 a7.5 7.5 0 1 0 15 0 a7.5 7.5 0 1 0 -15 0zM1089.64 -22.35 a7.5 7.5 0 1 0 15 0 a7.5 7.5 0 1 0 -15 0zM1154.59 15.15 a7.5 7.5 0 1 0 15 0 a7.5 7.5 0 1 0 -15 0zM1154.59 90.15 a7.5 7.5 0 1 0 15 0 a7.5 7.5 0 1 0 -15 0zM1024.69 15.15 a7.5 7.5 0 1 0 15 0 a7.5 7.5 0 1 0 -15 0zM1219.55 127.65 a7.5 7.5 0 1 0 15 0 a7.5 7.5 0 1 0 -15 0zM1219.55 202.65 a7.5 7.5 0 1 0 15 0 a7.5 7.5 0 1 0 -15 0zM1154.59 240.15 a7.5 7.5 0 1 0 15 0 a7.5 7.5 0 1 0 -15 0zM1154.59 315.15 a7.5 7.5 0 1 0 15 0 a7.5 7.5 0 1 0 -15 0zM1089.64 352.65 a7.5 7.5 0 1 0 15 0 a7.5 7.5 0 1 0 -15 0zM1024.69 315.15 a7.5 7.5 0 1 0 15 0 a7.5 7.5 0 1 0 -15 0zM1154.59 540.15 a7.5 7.5 0 1 0 15 0 a7.5 7.5 0 1 0 -15 0zM1219.55 577.65 a7.5 7.5 0 1 0 15 0 a7.5 7.5 0 1 0 -15 0zM1219.55 652.65 a7.5 7.5 0 1 0 15 0 a7.5 7.5 0 1 0 -15 0zM1154.59 690.15 a7.5 7.5 0 1 0 15 0 a7.5 7.5 0 1 0 -15 0zM1219.55 -22.35 a7.5 7.5 0 1 0 15 0 a7.5 7.5 0 1 0 -15 0zM1284.5 15.15 a7.5 7.5 0 1 0 15 0 a7.5 7.5 0 1 0 -15 0zM1284.5 90.15 a7.5 7.5 0 1 0 15 0 a7.5 7.5 0 1 0 -15 0zM1349.45 127.65 a7.5 7.5 0 1 0 15 0 a7.5 7.5 0 1 0 -15 0zM1349.45 202.65 a7.5 7.5 0 1 0 15 0 a7.5 7.5 0 1 0 -15 0zM1284.5 240.15 a7.5 7.5 0 1 0 15 0 a7.5 7.5 0 1 0 -15 0zM1284.5 315.15 a7.5 7.5 0 1 0 15 0 a7.5 7.5 0 1 0 -15 0zM1349.45 352.65 a7.5 7.5 0 1 0 15 0 a7.5 7.5 0 1 0 -15 0zM1349.45 427.65 a7.5 7.5 0 1 0 15 0 a7.5 7.5 0 1 0 -15 0zM1284.5 465.15 a7.5 7.5 0 1 0 15 0 a7.5 7.5 0 1 0 -15 0zM1219.55 427.65 a7.5 7.5 0 1 0 15 0 a7.5 7.5 0 1 0 -15 0zM1219.55 352.65 a7.5 7.5 0 1 0 15 0 a7.5 7.5 0 1 0 -15 0zM1284.5 540.15 a7.5 7.5 0 1 0 15 0 a7.5 7.5 0 1 0 -15 0zM1349.45 577.65 a7.5 7.5 0 1 0 15 0 a7.5 7.5 0 1 0 -15 0zM1349.45 652.65 a7.5 7.5 0 1 0 15 0 a7.5 7.5 0 1 0 -15 0zM1284.5 690.15 a7.5 7.5 0 1 0 15 0 a7.5 7.5 0 1 0 -15 0zM1414.41 90.15 a7.5 7.5 0 1 0 15 0 a7.5 7.5 0 1 0 -15 0zM1479.36 127.65 a7.5 7.5 0 1 0 15 0 a7.5 7.5 0 1 0 -15 0zM1479.36 202.65 a7.5 7.5 0 1 0 15 0 a7.5 7.5 0 1 0 -15 0zM1414.41 240.15 a7.5 7.5 0 1 0 15 0 a7.5 7.5 0 1 0 -15 0zM1349.46 202.65 a7.5 7.5 0 1 0 15 0 a7.5 7.5 0 1 0 -15 0zM1349.46 127.65 a7.5 7.5 0 1 0 15 0 a7.5 7.5 0 1 0 -15 0zM1349.46 427.65 a7.5 7.5 0 1 0 15 0 a7.5 7.5 0 1 0 -15 0zM1414.41 465.15 a7.5 7.5 0 1 0 15 0 a7.5 7.5 0 1 0 -15 0zM1414.41 540.15 a7.5 7.5 0 1 0 15 0 a7.5 7.5 0 1 0 -15 0zM1349.46 577.65 a7.5 7.5 0 1 0 15 0 a7.5 7.5 0 1 0 -15 0zM1479.36 577.65 a7.5 7.5 0 1 0 15 0 a7.5 7.5 0 1 0 -15 0zM1479.36 652.65 a7.5 7.5 0 1 0 15 0 a7.5 7.5 0 1 0 -15 0zM1414.41 690.15 a7.5 7.5 0 1 0 15 0 a7.5 7.5 0 1 0 -15 0zM1349.46 652.65 a7.5 7.5 0 1 0 15 0 a7.5 7.5 0 1 0 -15 0zM1544.32 315.15 a7.5 7.5 0 1 0 15 0 a7.5 7.5 0 1 0 -15 0zM1609.27 352.65 a7.5 7.5 0 1 0 15 0 a7.5 7.5 0 1 0 -15 0zM1609.27 427.65 a7.5 7.5 0 1 0 15 0 a7.5 7.5 0 1 0 -15 0zM1544.32 465.15 a7.5 7.5 0 1 0 15 0 a7.5 7.5 0 1 0 -15 0zM1479.36 427.65 a7.5 7.5 0 1 0 15 0 a7.5 7.5 0 1 0 -15 0zM1479.36 352.65 a7.5 7.5 0 1 0 15 0 a7.5 7.5 0 1 0 -15 0zM1544.32 540.15 a7.5 7.5 0 1 0 15 0 a7.5 7.5 0 1 0 -15 0zM1609.27 577.65 a7.5 7.5 0 1 0 15 0 a7.5 7.5 0 1 0 -15 0zM1609.27 652.65 a7.5 7.5 0 1 0 15 0 a7.5 7.5 0 1 0 -15 0zM1544.32 690.15 a7.5 7.5 0 1 0 15 0 a7.5 7.5 0 1 0 -15 0z" fill="#03305d"></path><path d="M31.61 -7.23L74.91 17.77L74.91 67.77L31.61 92.77L-11.69 67.77L-11.69 17.77zM74.91 67.77L118.22 92.77L118.22 142.77L74.91 167.77L31.61 142.77L31.61 92.77zM31.61 142.77L74.91 167.77L74.91 217.77L31.61 242.77L-11.69 217.77L-11.69 167.77zM31.61 292.77L74.91 317.77L74.91 367.77L31.61 392.77L-11.69 367.77L-11.69 317.77zM161.52 367.77L204.82 392.77L204.82 442.77L161.52 467.77L118.22 442.77L118.22 392.77zM204.82 142.77L248.12 167.77L248.12 217.77L204.82 242.77L161.52 217.77L161.52 167.77zM204.82 292.77L248.12 317.77L248.12 367.77L204.82 392.77L161.52 367.77L161.52 317.77zM204.82 442.77L248.12 467.77L248.12 517.77L204.82 542.77L161.52 517.77L161.52 467.77zM291.43 -7.23L334.73 17.77L334.73 67.77L291.43 92.77L248.12 67.77L248.12 17.77zM334.73 67.77L378.03 92.77L378.03 142.77L334.73 167.77L291.43 142.77L291.43 92.77zM291.43 142.77L334.73 167.77L334.73 217.77L291.43 242.77L248.12 217.77L248.12 167.77zM334.73 217.77L378.03 242.77L378.03 292.77L334.73 317.77L291.43 292.77L291.43 242.77zM378.03 -7.23L421.33 17.77L421.33 67.77L378.03 92.77L334.73 67.77L334.73 17.77zM421.33 67.77L464.64 92.77L464.64 142.77L421.33 167.77L378.03 142.77L378.03 92.77zM421.33 367.77L464.64 392.77L464.64 442.77L421.33 467.77L378.03 442.77L378.03 392.77zM378.03 442.77L421.33 467.77L421.33 517.77L378.03 542.77L334.73 517.77L334.73 467.77zM421.33 517.77L464.64 542.77L464.64 592.77L421.33 617.77L378.03 592.77L378.03 542.77zM464.64 142.77L507.94 167.77L507.94 217.77L464.64 242.77L421.33 217.77L421.33 167.77zM464.64 292.77L507.94 317.77L507.94 367.77L464.64 392.77L421.33 367.77L421.33 317.77zM464.64 442.77L507.94 467.77L507.94 517.77L464.64 542.77L421.33 517.77L421.33 467.77zM551.24 -7.23L594.54 17.77L594.54 67.77L551.24 92.77L507.94 67.77L507.94 17.77zM594.54 367.77L637.85 392.77L637.85 442.77L594.54 467.77L551.24 442.77L551.24 392.77zM551.24 442.77L594.54 467.77L594.54 517.77L551.24 542.77L507.94 517.77L507.94 467.77zM594.54 517.77L637.85 542.77L637.85 592.77L594.54 617.77L551.24 592.77L551.24 542.77zM637.85 -7.23L681.15 17.77L681.15 67.77L637.85 92.77L594.54 67.77L594.54 17.77zM681.15 67.77L724.45 92.77L724.45 142.77L681.15 167.77L637.85 142.77L637.85 92.77zM681.15 217.77L724.45 242.77L724.45 292.77L681.15 317.77L637.85 292.77L637.85 242.77zM637.85 442.77L681.15 467.77L681.15 517.77L637.85 542.77L594.54 517.77L594.54 467.77zM724.45 -7.23L767.75 17.77L767.75 67.77L724.45 92.77L681.15 67.77L681.15 17.77zM724.45 142.77L767.75 167.77L767.75 217.77L724.45 242.77L681.15 217.77L681.15 167.77zM767.75 517.77L811.06 542.77L811.06 592.77L767.75 617.77L724.45 592.77L724.45 542.77zM811.06 -7.23L854.36 17.77L854.36 67.77L811.06 92.77L767.75 67.77L767.75 17.77zM811.06 442.77L854.36 467.77L854.36 517.77L811.06 542.77L767.75 517.77L767.75 467.77zM897.66 142.77L940.96 167.77L940.96 217.77L897.66 242.77L854.36 217.77L854.36 167.77zM940.96 217.77L984.27 242.77L984.27 292.77L940.96 317.77L897.66 292.77L897.66 242.77zM897.66 292.77L940.96 317.77L940.96 367.77L897.66 392.77L854.36 367.77L854.36 317.77zM897.66 442.77L940.96 467.77L940.96 517.77L897.66 542.77L854.36 517.77L854.36 467.77zM940.96 517.77L984.27 542.77L984.27 592.77L940.96 617.77L897.66 592.77L897.66 542.77zM984.27 142.77L1027.57 167.77L1027.57 217.77L984.27 242.77L940.96 217.77L940.96 167.77zM984.27 442.77L1027.57 467.77L1027.57 517.77L984.27 542.77L940.96 517.77L940.96 467.77zM1070.87 -7.23L1114.17 17.77L1114.17 67.77L1070.87 92.77L1027.57 67.77L1027.57 17.77zM1070.87 142.77L1114.17 167.77L1114.17 217.77L1070.87 242.77L1027.57 217.77L1027.57 167.77zM1114.17 217.77L1157.47 242.77L1157.47 292.77L1114.17 317.77L1070.87 292.77L1070.87 242.77zM1070.87 292.77L1114.17 317.77L1114.17 367.77L1070.87 392.77L1027.57 367.77L1027.57 317.77zM1070.87 442.77L1114.17 467.77L1114.17 517.77L1070.87 542.77L1027.57 517.77L1027.57 467.77zM1157.47 -7.23L1200.78 17.77L1200.78 67.77L1157.47 92.77L1114.17 67.77L1114.17 17.77zM1200.78 217.77L1244.08 242.77L1244.08 292.77L1200.78 317.77L1157.47 292.77L1157.47 242.77zM1244.08 -7.23L1287.38 17.77L1287.38 67.77L1244.08 92.77L1200.78 67.77L1200.78 17.77zM1244.08 292.77L1287.38 317.77L1287.38 367.77L1244.08 392.77L1200.78 367.77L1200.78 317.77zM1287.38 367.77L1330.68 392.77L1330.68 442.77L1287.38 467.77L1244.08 442.77L1244.08 392.77zM1287.38 517.77L1330.68 542.77L1330.68 592.77L1287.38 617.77L1244.08 592.77L1244.08 542.77zM1330.68 142.77L1373.99 167.77L1373.99 217.77L1330.68 242.77L1287.38 217.77L1287.38 167.77zM1417.29 -7.23L1460.59 17.77L1460.59 67.77L1417.29 92.77L1373.99 67.77L1373.99 17.77zM1460.59 67.77L1503.89 92.77L1503.89 142.77L1460.59 167.77L1417.29 142.77L1417.29 92.77zM1417.29 142.77L1460.59 167.77L1460.59 217.77L1417.29 242.77L1373.99 217.77L1373.99 167.77zM1460.59 217.77L1503.89 242.77L1503.89 292.77L1460.59 317.77L1417.29 292.77L1417.29 242.77zM1460.59 367.77L1503.89 392.77L1503.89 442.77L1460.59 467.77L1417.29 442.77L1417.29 392.77z" stroke="rgba(6, 80, 156, 0.93)" stroke-width="2"></path></g><defs><mask id="SvgjsMask1000"><rect width="1440" height="560" fill="#ffffff"></rect></mask></defs></svg>