<svg xmlns="http://www.w3.org/2000/svg" version="1.1" xmlns:xlink="http://www.w3.org/1999/xlink" xmlns:svgjs="http://svgjs.com/svgjs" width="1440" height="560" preserveAspectRatio="none" viewBox="0 0 1440 560"><g mask="url(&quot;#SvgjsMask1000&quot;)" fill="none"><rect width="1440" height="560" x="0" y="0" fill="#0e2a47"></rect><path d="M-61.33 409.22L-61.33 409.22" stroke="#132e65" stroke-width="1.5"></path><path d="M-61.33 409.22L47.83 372.85" stroke="#132e65" stroke-width="1.5"></path><path d="M-61.33 409.22L-50.12 547.84" stroke="#132e65" stroke-width="1.5"></path><path d="M-61.33 409.22L79.29 548.2" stroke="#132e65" stroke-width="1.5"></path><path d="M-61.33 409.22L-87.49 641.47" stroke="#132e65" stroke-width="1.5"></path><path d="M-61.33 409.22L89.03 674.7" stroke="#132e65" stroke-width="1.5"></path><path d="M-61.33 409.22L246.04 390.12" stroke="#132e65" stroke-width="1.5"></path><path d="M-50.12 547.84L-50.12 547.84" stroke="#132e65" stroke-width="1.5"></path><path d="M-50.12 547.84L-87.49 641.47" stroke="#132e65" stroke-width="1.5"></path><path d="M-50.12 547.84L79.29 548.2" stroke="#132e65" stroke-width="1.5"></path><path d="M-50.12 547.84L89.03 674.7" stroke="#132e65" stroke-width="1.5"></path><path d="M-87.49 641.47L-87.49 641.47" stroke="#132e65" stroke-width="1.5"></path><path d="M-87.49 641.47L89.03 674.7" stroke="#132e65" stroke-width="1.5"></path><path d="M47.83 372.85L47.83 372.85" stroke="#132e65" stroke-width="1.5"></path><path d="M47.83 372.85L79.29 548.2" stroke="#132e65" stroke-width="1.5"></path><path d="M47.83 372.85L246.04 390.12" stroke="#132e65" stroke-width="1.5"></path><path d="M79.29 548.2L79.29 548.2" stroke="#132e65" stroke-width="1.5"></path><path d="M79.29 548.2L89.03 674.7" stroke="#132e65" stroke-width="1.5"></path><path d="M89.03 674.7L89.03 674.7" stroke="#132e65" stroke-width="1.5"></path><path d="M89.03 674.7L201.53 692.32" stroke="#132e65" stroke-width="1.5"></path><path d="M246.04 390.12L246.04 390.12" stroke="#132e65" stroke-width="1.5"></path><path d="M246.04 390.12L257.09 502.66" stroke="#132e65" stroke-width="1.5"></path><path d="M246.04 390.12L390.07 350.74" stroke="#132e65" stroke-width="1.5"></path><path d="M246.04 390.12L79.29 548.2" stroke="#132e65" stroke-width="1.5"></path><path d="M257.09 502.66L257.09 502.66" stroke="#132e65" stroke-width="1.5"></path><path d="M257.09 502.66L337.9 662.11" stroke="#132e65" stroke-width="1.5"></path><path d="M257.09 502.66L79.29 548.2" stroke="#132e65" stroke-width="1.5"></path><path d="M257.09 502.66L201.53 692.32" stroke="#132e65" stroke-width="1.5"></path><path d="M201.53 692.32L201.53 692.32" stroke="#132e65" stroke-width="1.5"></path><path d="M390.07 350.74L390.07 350.74" stroke="#132e65" stroke-width="1.5"></path><path d="M390.07 350.74L507.43 388.64" stroke="#132e65" stroke-width="1.5"></path><path d="M390.07 350.74L257.09 502.66" stroke="#132e65" stroke-width="1.5"></path><path d="M390.07 350.74L517.44 546.4" stroke="#132e65" stroke-width="1.5"></path><path d="M337.9 662.11L337.9 662.11" stroke="#132e65" stroke-width="1.5"></path><path d="M337.9 662.11L201.53 692.32" stroke="#132e65" stroke-width="1.5"></path><path d="M337.9 662.11L517.44 546.4" stroke="#132e65" stroke-width="1.5"></path><path d="M337.9 662.11L550.53 704.96" stroke="#132e65" stroke-width="1.5"></path><path d="M507.43 388.64L507.43 388.64" stroke="#132e65" stroke-width="1.5"></path><path d="M507.43 388.64L517.44 546.4" stroke="#132e65" stroke-width="1.5"></path><path d="M507.43 388.64L672.68 388.82" stroke="#132e65" stroke-width="1.5"></path><path d="M507.43 388.64L681.61 531.65" stroke="#132e65" stroke-width="1.5"></path><path d="M507.43 388.64L661.66 221.7" stroke="#132e65" stroke-width="1.5"></path><path d="M517.44 546.4L517.44 546.4" stroke="#132e65" stroke-width="1.5"></path><path d="M517.44 546.4L550.53 704.96" stroke="#132e65" stroke-width="1.5"></path><path d="M517.44 546.4L681.61 531.65" stroke="#132e65" stroke-width="1.5"></path><path d="M550.53 704.96L550.53 704.96" stroke="#132e65" stroke-width="1.5"></path><path d="M550.53 704.96L665.52 663.96" stroke="#132e65" stroke-width="1.5"></path><path d="M550.53 704.96L681.61 531.65" stroke="#132e65" stroke-width="1.5"></path><path d="M550.53 704.96L850.92 659.56" stroke="#132e65" stroke-width="1.5"></path><path d="M550.53 704.96L507.43 388.64" stroke="#132e65" stroke-width="1.5"></path><path d="M661.66 221.7L661.66 221.7" stroke="#132e65" stroke-width="1.5"></path><path d="M661.66 221.7L672.68 388.82" stroke="#132e65" stroke-width="1.5"></path><path d="M661.66 221.7L847.72 226.78" stroke="#132e65" stroke-width="1.5"></path><path d="M661.66 221.7L788.21 370.64" stroke="#132e65" stroke-width="1.5"></path><path d="M661.66 221.7L390.07 350.74" stroke="#132e65" stroke-width="1.5"></path><path d="M661.66 221.7L681.61 531.65" stroke="#132e65" stroke-width="1.5"></path><path d="M672.68 388.82L672.68 388.82" stroke="#132e65" stroke-width="1.5"></path><path d="M672.68 388.82L788.21 370.64" stroke="#132e65" stroke-width="1.5"></path><path d="M672.68 388.82L681.61 531.65" stroke="#132e65" stroke-width="1.5"></path><path d="M681.61 531.65L681.61 531.65" stroke="#132e65" stroke-width="1.5"></path><path d="M681.61 531.65L812.43 518.86" stroke="#132e65" stroke-width="1.5"></path><path d="M681.61 531.65L665.52 663.96" stroke="#132e65" stroke-width="1.5"></path><path d="M665.52 663.96L665.52 663.96" stroke="#132e65" stroke-width="1.5"></path><path d="M665.52 663.96L850.92 659.56" stroke="#132e65" stroke-width="1.5"></path><path d="M847.72 226.78L847.72 226.78" stroke="#132e65" stroke-width="1.5"></path><path d="M847.72 226.78L788.21 370.64" stroke="#132e65" stroke-width="1.5"></path><path d="M847.72 226.78L1011.38 257.83" stroke="#132e65" stroke-width="1.5"></path><path d="M847.72 226.78L977.97 366.72" stroke="#132e65" stroke-width="1.5"></path><path d="M788.21 370.64L788.21 370.64" stroke="#132e65" stroke-width="1.5"></path><path d="M788.21 370.64L812.43 518.86" stroke="#132e65" stroke-width="1.5"></path><path d="M788.21 370.64L977.97 366.72" stroke="#132e65" stroke-width="1.5"></path><path d="M788.21 370.64L681.61 531.65" stroke="#132e65" stroke-width="1.5"></path><path d="M812.43 518.86L812.43 518.86" stroke="#132e65" stroke-width="1.5"></path><path d="M812.43 518.86L850.92 659.56" stroke="#132e65" stroke-width="1.5"></path><path d="M812.43 518.86L959.22 535.41" stroke="#132e65" stroke-width="1.5"></path><path d="M812.43 518.86L672.68 388.82" stroke="#132e65" stroke-width="1.5"></path><path d="M812.43 518.86L665.52 663.96" stroke="#132e65" stroke-width="1.5"></path><path d="M850.92 659.56L850.92 659.56" stroke="#132e65" stroke-width="1.5"></path><path d="M850.92 659.56L965.72 688.55" stroke="#132e65" stroke-width="1.5"></path><path d="M991.77 -46.71L991.77 -46.71" stroke="#132e65" stroke-width="1.5"></path><path d="M991.77 -46.71L958.4 51.78" stroke="#132e65" stroke-width="1.5"></path><path d="M991.77 -46.71L1109.26 -48.46" stroke="#132e65" stroke-width="1.5"></path><path d="M991.77 -46.71L1151.56 66.84" stroke="#132e65" stroke-width="1.5"></path><path d="M991.77 -46.71L1256.99 -71.72" stroke="#132e65" stroke-width="1.5"></path><path d="M991.77 -46.71L1011.38 257.83" stroke="#132e65" stroke-width="1.5"></path><path d="M958.4 51.78L958.4 51.78" stroke="#132e65" stroke-width="1.5"></path><path d="M958.4 51.78L1109.26 -48.46" stroke="#132e65" stroke-width="1.5"></path><path d="M958.4 51.78L1151.56 66.84" stroke="#132e65" stroke-width="1.5"></path><path d="M958.4 51.78L847.72 226.78" stroke="#132e65" stroke-width="1.5"></path><path d="M958.4 51.78L1011.38 257.83" stroke="#132e65" stroke-width="1.5"></path><path d="M1011.38 257.83L1011.38 257.83" stroke="#132e65" stroke-width="1.5"></path><path d="M1011.38 257.83L977.97 366.72" stroke="#132e65" stroke-width="1.5"></path><path d="M1011.38 257.83L1147.01 225.16" stroke="#132e65" stroke-width="1.5"></path><path d="M1011.38 257.83L1152.91 351.16" stroke="#132e65" stroke-width="1.5"></path><path d="M1011.38 257.83L1151.56 66.84" stroke="#132e65" stroke-width="1.5"></path><path d="M977.97 366.72L977.97 366.72" stroke="#132e65" stroke-width="1.5"></path><path d="M977.97 366.72L959.22 535.41" stroke="#132e65" stroke-width="1.5"></path><path d="M977.97 366.72L1152.91 351.16" stroke="#132e65" stroke-width="1.5"></path><path d="M959.22 535.41L959.22 535.41" stroke="#132e65" stroke-width="1.5"></path><path d="M959.22 535.41L965.72 688.55" stroke="#132e65" stroke-width="1.5"></path><path d="M959.22 535.41L1120.97 548.49" stroke="#132e65" stroke-width="1.5"></path><path d="M965.72 688.55L965.72 688.55" stroke="#132e65" stroke-width="1.5"></path><path d="M965.72 688.55L1121.58 653.43" stroke="#132e65" stroke-width="1.5"></path><path d="M965.72 688.55L1120.97 548.49" stroke="#132e65" stroke-width="1.5"></path><path d="M965.72 688.55L812.43 518.86" stroke="#132e65" stroke-width="1.5"></path><path d="M965.72 688.55L665.52 663.96" stroke="#132e65" stroke-width="1.5"></path><path d="M1109.26 -48.46L1109.26 -48.46" stroke="#132e65" stroke-width="1.5"></path><path d="M1109.26 -48.46L1151.56 66.84" stroke="#132e65" stroke-width="1.5"></path><path d="M1109.26 -48.46L1256.99 -71.72" stroke="#132e65" stroke-width="1.5"></path><path d="M1151.56 66.84L1151.56 66.84" stroke="#132e65" stroke-width="1.5"></path><path d="M1147.01 225.16L1147.01 225.16" stroke="#132e65" stroke-width="1.5"></path><path d="M1147.01 225.16L1152.91 351.16" stroke="#132e65" stroke-width="1.5"></path><path d="M1152.91 351.16L1152.91 351.16" stroke="#132e65" stroke-width="1.5"></path><path d="M1152.91 351.16L1309.72 354.25" stroke="#132e65" stroke-width="1.5"></path><path d="M1120.97 548.49L1120.97 548.49" stroke="#132e65" stroke-width="1.5"></path><path d="M1120.97 548.49L1121.58 653.43" stroke="#132e65" stroke-width="1.5"></path><path d="M1120.97 548.49L1268.98 515.52" stroke="#132e65" stroke-width="1.5"></path><path d="M1120.97 548.49L1152.91 351.16" stroke="#132e65" stroke-width="1.5"></path><path d="M1120.97 548.49L977.97 366.72" stroke="#132e65" stroke-width="1.5"></path><path d="M1121.58 653.43L1121.58 653.43" stroke="#132e65" stroke-width="1.5"></path><path d="M1121.58 653.43L959.22 535.41" stroke="#132e65" stroke-width="1.5"></path><path d="M1121.58 653.43L1268.98 515.52" stroke="#132e65" stroke-width="1.5"></path><path d="M1121.58 653.43L850.92 659.56" stroke="#132e65" stroke-width="1.5"></path><path d="M1121.58 653.43L1405.56 644.31" stroke="#132e65" stroke-width="1.5"></path><path d="M1256.99 -71.72L1256.99 -71.72" stroke="#132e65" stroke-width="1.5"></path><path d="M1256.99 -71.72L1309.21 69.44" stroke="#132e65" stroke-width="1.5"></path><path d="M1256.99 -71.72L1151.56 66.84" stroke="#132e65" stroke-width="1.5"></path><path d="M1309.21 69.44L1309.21 69.44" stroke="#132e65" stroke-width="1.5"></path><path d="M1309.21 69.44L1455.97 89.96" stroke="#132e65" stroke-width="1.5"></path><path d="M1309.21 69.44L1305.26 226.87" stroke="#132e65" stroke-width="1.5"></path><path d="M1309.21 69.44L1151.56 66.84" stroke="#132e65" stroke-width="1.5"></path><path d="M1309.21 69.44L1418.96 244.96" stroke="#132e65" stroke-width="1.5"></path><path d="M1309.21 69.44L1147.01 225.16" stroke="#132e65" stroke-width="1.5"></path><path d="M1305.26 226.87L1305.26 226.87" stroke="#132e65" stroke-width="1.5"></path><path d="M1305.26 226.87L1418.96 244.96" stroke="#132e65" stroke-width="1.5"></path><path d="M1305.26 226.87L1309.72 354.25" stroke="#132e65" stroke-width="1.5"></path><path d="M1309.72 354.25L1309.72 354.25" stroke="#132e65" stroke-width="1.5"></path><path d="M1309.72 354.25L1411.88 374.14" stroke="#132e65" stroke-width="1.5"></path><path d="M1309.72 354.25L1418.96 244.96" stroke="#132e65" stroke-width="1.5"></path><path d="M1309.72 354.25L1268.98 515.52" stroke="#132e65" stroke-width="1.5"></path><path d="M1268.98 515.52L1268.98 515.52" stroke="#132e65" stroke-width="1.5"></path><path d="M1455.97 89.96L1455.97 89.96" stroke="#132e65" stroke-width="1.5"></path><path d="M1455.97 89.96L1418.96 244.96" stroke="#132e65" stroke-width="1.5"></path><path d="M1455.97 89.96L1552.15 245.1" stroke="#132e65" stroke-width="1.5"></path><path d="M1455.97 89.96L1305.26 226.87" stroke="#132e65" stroke-width="1.5"></path><path d="M1455.97 89.96L1558.39 -110.24" stroke="#132e65" stroke-width="1.5"></path><path d="M1418.96 244.96L1418.96 244.96" stroke="#132e65" stroke-width="1.5"></path><path d="M1418.96 244.96L1411.88 374.14" stroke="#132e65" stroke-width="1.5"></path><path d="M1418.96 244.96L1552.15 245.1" stroke="#132e65" stroke-width="1.5"></path><path d="M1411.88 374.14L1411.88 374.14" stroke="#132e65" stroke-width="1.5"></path><path d="M1411.88 374.14L1460.21 533.7" stroke="#132e65" stroke-width="1.5"></path><path d="M1460.21 533.7L1460.21 533.7" stroke="#132e65" stroke-width="1.5"></path><path d="M1460.21 533.7L1567.18 519.86" stroke="#132e65" stroke-width="1.5"></path><path d="M1460.21 533.7L1405.56 644.31" stroke="#132e65" stroke-width="1.5"></path><path d="M1405.56 644.31L1405.56 644.31" stroke="#132e65" stroke-width="1.5"></path><path d="M1405.56 644.31L1544.52 679.47" stroke="#132e65" stroke-width="1.5"></path><path d="M1405.56 644.31L1268.98 515.52" stroke="#132e65" stroke-width="1.5"></path><path d="M1405.56 644.31L1567.18 519.86" stroke="#132e65" stroke-width="1.5"></path><path d="M1558.39 -110.24L1558.39 -110.24" stroke="#132e65" stroke-width="1.5"></path><path d="M1558.39 -110.24L1256.99 -71.72" stroke="#132e65" stroke-width="1.5"></path><path d="M1558.39 -110.24L1309.21 69.44" stroke="#132e65" stroke-width="1.5"></path><path d="M1558.39 -110.24L1552.15 245.1" stroke="#132e65" stroke-width="1.5"></path><path d="M1558.39 -110.24L1418.96 244.96" stroke="#132e65" stroke-width="1.5"></path><path d="M1552.15 245.1L1552.15 245.1" stroke="#132e65" stroke-width="1.5"></path><path d="M1552.15 245.1L1598.93 392.1" stroke="#132e65" stroke-width="1.5"></path><path d="M1598.93 392.1L1598.93 392.1" stroke="#132e65" stroke-width="1.5"></path><path d="M1598.93 392.1L1567.18 519.86" stroke="#132e65" stroke-width="1.5"></path><path d="M1567.18 519.86L1567.18 519.86" stroke="#132e65" stroke-width="1.5"></path><path d="M1567.18 519.86L1544.52 679.47" stroke="#132e65" stroke-width="1.5"></path><path d="M1544.52 679.47L1544.52 679.47" stroke="#132e65" stroke-width="1.5"></path><path d="M1544.52 679.47L1460.21 533.7" stroke="#132e65" stroke-width="1.5"></path><path d="M1544.52 679.47L1598.93 392.1" stroke="#132e65" stroke-width="1.5"></path><path d="M1544.52 679.47L1268.98 515.52" stroke="#132e65" stroke-width="1.5"></path><path d="M1544.52 679.47L1411.88 374.14" stroke="#132e65" stroke-width="1.5"></path><circle r="5" cx="-61.33" cy="409.22" fill="#132e65"></circle><circle r="5" cx="-50.12" cy="547.84" fill="#132e65"></circle><circle r="5" cx="-87.49" cy="641.47" fill="#132e65"></circle><circle r="5" cx="47.83" cy="372.85" fill="#132e65"></circle><circle r="5" cx="79.29" cy="548.2" fill="#132e65"></circle><circle r="5" cx="89.03" cy="674.7" fill="#132e65"></circle><circle r="5" cx="246.04" cy="390.12" fill="#132e65"></circle><circle r="5" cx="257.09" cy="502.66" fill="#132e65"></circle><circle r="5" cx="201.53" cy="692.32" fill="#132e65"></circle><circle r="5" cx="390.07" cy="350.74" fill="#132e65"></circle><circle r="5" cx="337.9" cy="662.11" fill="#132e65"></circle><circle r="5" cx="507.43" cy="388.64" fill="#132e65"></circle><circle r="5" cx="517.44" cy="546.4" fill="#132e65"></circle><circle r="5" cx="550.53" cy="704.96" fill="#132e65"></circle><circle r="5" cx="661.66" cy="221.7" fill="#132e65"></circle><circle r="5" cx="672.68" cy="388.82" fill="#132e65"></circle><circle r="5" cx="681.61" cy="531.65" fill="#132e65"></circle><circle r="5" cx="665.52" cy="663.96" fill="#132e65"></circle><circle r="5" cx="847.72" cy="226.78" fill="#132e65"></circle><circle r="5" cx="788.21" cy="370.64" fill="#132e65"></circle><circle r="5" cx="812.43" cy="518.86" fill="#132e65"></circle><circle r="5" cx="850.92" cy="659.56" fill="#132e65"></circle><circle r="5" cx="991.77" cy="-46.71" fill="#132e65"></circle><circle r="5" cx="958.4" cy="51.78" fill="#132e65"></circle><circle r="5" cx="1011.38" cy="257.83" fill="#132e65"></circle><circle r="5" cx="977.97" cy="366.72" fill="#132e65"></circle><circle r="5" cx="959.22" cy="535.41" fill="#132e65"></circle><circle r="5" cx="965.72" cy="688.55" fill="#132e65"></circle><circle r="5" cx="1109.26" cy="-48.46" fill="#132e65"></circle><circle r="5" cx="1151.56" cy="66.84" fill="#132e65"></circle><circle r="5" cx="1147.01" cy="225.16" fill="#132e65"></circle><circle r="5" cx="1152.91" cy="351.16" fill="#132e65"></circle><circle r="5" cx="1120.97" cy="548.49" fill="#132e65"></circle><circle r="5" cx="1121.58" cy="653.43" fill="#132e65"></circle><circle r="5" cx="1256.99" cy="-71.72" fill="#132e65"></circle><circle r="5" cx="1309.21" cy="69.44" fill="#132e65"></circle><circle r="5" cx="1305.26" cy="226.87" fill="#132e65"></circle><circle r="5" cx="1309.72" cy="354.25" fill="#132e65"></circle><circle r="5" cx="1268.98" cy="515.52" fill="#132e65"></circle><circle r="5" cx="1455.97" cy="89.96" fill="#132e65"></circle><circle r="5" cx="1418.96" cy="244.96" fill="#132e65"></circle><circle r="5" cx="1411.88" cy="374.14" fill="#132e65"></circle><circle r="5" cx="1460.21" cy="533.7" fill="#132e65"></circle><circle r="5" cx="1405.56" cy="644.31" fill="#132e65"></circle><circle r="5" cx="1558.39" cy="-110.24" fill="#132e65"></circle><circle r="5" cx="1552.15" cy="245.1" fill="#132e65"></circle><circle r="5" cx="1598.93" cy="392.1" fill="#132e65"></circle><circle r="5" cx="1567.18" cy="519.86" fill="#132e65"></circle><circle r="5" cx="1544.52" cy="679.47" fill="#132e65"></circle><path d="M-79.16 538.14L-79.16 538.14" stroke="hsl(228.5, 77.2%, 51.5%)" stroke-width="1.5"></path><path d="M-79.16 538.14L54.31 490.12" stroke="hsl(228.5, 77.2%, 51.5%)" stroke-width="1.5"></path><path d="M-79.16 538.14L-93.72 691.2" stroke="hsl(228.5, 77.2%, 51.5%)" stroke-width="1.5"></path><path d="M-79.16 538.14L198.39 662.48" stroke="hsl(228.5, 77.2%, 51.5%)" stroke-width="1.5"></path><path d="M388.62 498.62L388.62 498.62" stroke="hsl(228.5, 77.2%, 51.5%)" stroke-width="1.5"></path><path d="M388.62 498.62L522.61 516.75" stroke="hsl(228.5, 77.2%, 51.5%)" stroke-width="1.5"></path><path d="M388.62 498.62L241.7 492.62" stroke="hsl(228.5, 77.2%, 51.5%)" stroke-width="1.5"></path><path d="M388.62 498.62L370.03 645.37" stroke="hsl(228.5, 77.2%, 51.5%)" stroke-width="1.5"></path><path d="M388.62 498.62L493.27 673.15" stroke="hsl(228.5, 77.2%, 51.5%)" stroke-width="1.5"></path><path d="M388.62 498.62L198.39 662.48" stroke="hsl(228.5, 77.2%, 51.5%)" stroke-width="1.5"></path><path d="M388.62 498.62L675.42 515.15" stroke="hsl(228.5, 77.2%, 51.5%)" stroke-width="1.5"></path><path d="M791.53 370.75L791.53 370.75" stroke="hsl(228.5, 77.2%, 51.5%)" stroke-width="1.5"></path><path d="M791.53 370.75L688.78 359.61" stroke="hsl(228.5, 77.2%, 51.5%)" stroke-width="1.5"></path><path d="M791.53 370.75L839.26 528.58" stroke="hsl(228.5, 77.2%, 51.5%)" stroke-width="1.5"></path><path d="M818.36 709.14L818.36 709.14" stroke="hsl(228.5, 77.2%, 51.5%)" stroke-width="1.5"></path><path d="M818.36 709.14L938.01 685.43" stroke="hsl(228.5, 77.2%, 51.5%)" stroke-width="1.5"></path><path d="M818.36 709.14L653.12 676.1" stroke="hsl(228.5, 77.2%, 51.5%)" stroke-width="1.5"></path><path d="M998.59 368.78L998.59 368.78" stroke="hsl(228.5, 77.2%, 51.5%)" stroke-width="1.5"></path><path d="M998.59 368.78L1129.66 380.29" stroke="hsl(228.5, 77.2%, 51.5%)" stroke-width="1.5"></path><path d="M998.59 368.78L1091.92 497.66" stroke="hsl(228.5, 77.2%, 51.5%)" stroke-width="1.5"></path><path d="M998.59 368.78L992.94 548.49" stroke="hsl(228.5, 77.2%, 51.5%)" stroke-width="1.5"></path><path d="M998.59 368.78L791.53 370.75" stroke="hsl(228.5, 77.2%, 51.5%)" stroke-width="1.5"></path><path d="M998.59 368.78L1137.78 196.8" stroke="hsl(228.5, 77.2%, 51.5%)" stroke-width="1.5"></path><path d="M1137.78 196.8L1137.78 196.8" stroke="hsl(228.5, 77.2%, 51.5%)" stroke-width="1.5"></path><path d="M1137.78 196.8L1282.26 230.42" stroke="hsl(228.5, 77.2%, 51.5%)" stroke-width="1.5"></path><path d="M1137.78 196.8L1129.66 380.29" stroke="hsl(228.5, 77.2%, 51.5%)" stroke-width="1.5"></path><path d="M1137.78 196.8L1288.54 76.28" stroke="hsl(228.5, 77.2%, 51.5%)" stroke-width="1.5"></path><path d="M1288.54 76.28L1288.54 76.28" stroke="hsl(228.5, 77.2%, 51.5%)" stroke-width="1.5"></path><path d="M1288.54 76.28L1408.31 42.95" stroke="hsl(228.5, 77.2%, 51.5%)" stroke-width="1.5"></path><path d="M1288.54 76.28L1282.26 230.42" stroke="hsl(228.5, 77.2%, 51.5%)" stroke-width="1.5"></path><path d="M1288.54 76.28L1245.08 -89.65" stroke="hsl(228.5, 77.2%, 51.5%)" stroke-width="1.5"></path><path d="M1288.54 76.28L1423.72 196.03" stroke="hsl(228.5, 77.2%, 51.5%)" stroke-width="1.5"></path><path d="M1288.54 76.28L1152.81 -81.53" stroke="hsl(228.5, 77.2%, 51.5%)" stroke-width="1.5"></path><path d="M1305.03 530.88L1305.03 530.88" stroke="hsl(228.5, 77.2%, 51.5%)" stroke-width="1.5"></path><path d="M1305.03 530.88L1457.84 533.9" stroke="hsl(228.5, 77.2%, 51.5%)" stroke-width="1.5"></path><path d="M1305.03 530.88L1269.23 688.89" stroke="hsl(228.5, 77.2%, 51.5%)" stroke-width="1.5"></path><path d="M1423.72 196.03L1423.72 196.03" stroke="hsl(228.5, 77.2%, 51.5%)" stroke-width="1.5"></path><path d="M1423.72 196.03L1555.12 236.52" stroke="hsl(228.5, 77.2%, 51.5%)" stroke-width="1.5"></path><path d="M1569.09 -70.08L1569.09 -70.08" stroke="hsl(228.5, 77.2%, 51.5%)" stroke-width="1.5"></path><path d="M1569.09 -70.08L1551.98 98.18" stroke="hsl(228.5, 77.2%, 51.5%)" stroke-width="1.5"></path><path d="M1569.09 -70.08L1397.4 -102.17" stroke="hsl(228.5, 77.2%, 51.5%)" stroke-width="1.5"></path><path d="M1569.09 -70.08L1408.31 42.95" stroke="hsl(228.5, 77.2%, 51.5%)" stroke-width="1.5"></path><path d="M1569.09 -70.08L1423.72 196.03" stroke="hsl(228.5, 77.2%, 51.5%)" stroke-width="1.5"></path><path d="M-93.72 691.2L-93.72 691.2" stroke="hsl(228.5, 77.2%, 51.5%)" stroke-width="1.5"></path><path d="M-93.72 691.2L54.31 490.12" stroke="hsl(228.5, 77.2%, 51.5%)" stroke-width="1.5"></path><path d="M-93.72 691.2L198.39 662.48" stroke="hsl(228.5, 77.2%, 51.5%)" stroke-width="1.5"></path><path d="M-93.72 691.2L241.7 492.62" stroke="hsl(228.5, 77.2%, 51.5%)" stroke-width="1.5"></path><path d="M-93.72 691.2L370.03 645.37" stroke="hsl(228.5, 77.2%, 51.5%)" stroke-width="1.5"></path><path d="M-93.72 691.2L388.62 498.62" stroke="hsl(228.5, 77.2%, 51.5%)" stroke-width="1.5"></path><path d="M54.31 490.12L54.31 490.12" stroke="hsl(228.5, 77.2%, 51.5%)" stroke-width="1.5"></path><path d="M241.7 492.62L241.7 492.62" stroke="hsl(228.5, 77.2%, 51.5%)" stroke-width="1.5"></path><path d="M241.7 492.62L198.39 662.48" stroke="hsl(228.5, 77.2%, 51.5%)" stroke-width="1.5"></path><path d="M241.7 492.62L54.31 490.12" stroke="hsl(228.5, 77.2%, 51.5%)" stroke-width="1.5"></path><path d="M241.7 492.62L370.03 645.37" stroke="hsl(228.5, 77.2%, 51.5%)" stroke-width="1.5"></path><path d="M241.7 492.62L522.61 516.75" stroke="hsl(228.5, 77.2%, 51.5%)" stroke-width="1.5"></path><path d="M241.7 492.62L493.27 673.15" stroke="hsl(228.5, 77.2%, 51.5%)" stroke-width="1.5"></path><path d="M198.39 662.48L198.39 662.48" stroke="hsl(228.5, 77.2%, 51.5%)" stroke-width="1.5"></path><path d="M198.39 662.48L370.03 645.37" stroke="hsl(228.5, 77.2%, 51.5%)" stroke-width="1.5"></path><path d="M198.39 662.48L54.31 490.12" stroke="hsl(228.5, 77.2%, 51.5%)" stroke-width="1.5"></path><path d="M370.03 645.37L370.03 645.37" stroke="hsl(228.5, 77.2%, 51.5%)" stroke-width="1.5"></path><path d="M370.03 645.37L493.27 673.15" stroke="hsl(228.5, 77.2%, 51.5%)" stroke-width="1.5"></path><path d="M370.03 645.37L522.61 516.75" stroke="hsl(228.5, 77.2%, 51.5%)" stroke-width="1.5"></path><path d="M522.61 516.75L522.61 516.75" stroke="hsl(228.5, 77.2%, 51.5%)" stroke-width="1.5"></path><path d="M522.61 516.75L675.42 515.15" stroke="hsl(228.5, 77.2%, 51.5%)" stroke-width="1.5"></path><path d="M522.61 516.75L493.27 673.15" stroke="hsl(228.5, 77.2%, 51.5%)" stroke-width="1.5"></path><path d="M522.61 516.75L653.12 676.1" stroke="hsl(228.5, 77.2%, 51.5%)" stroke-width="1.5"></path><path d="M522.61 516.75L688.78 359.61" stroke="hsl(228.5, 77.2%, 51.5%)" stroke-width="1.5"></path><path d="M493.27 673.15L493.27 673.15" stroke="hsl(228.5, 77.2%, 51.5%)" stroke-width="1.5"></path><path d="M493.27 673.15L653.12 676.1" stroke="hsl(228.5, 77.2%, 51.5%)" stroke-width="1.5"></path><path d="M688.78 359.61L688.78 359.61" stroke="hsl(228.5, 77.2%, 51.5%)" stroke-width="1.5"></path><path d="M688.78 359.61L675.42 515.15" stroke="hsl(228.5, 77.2%, 51.5%)" stroke-width="1.5"></path><path d="M688.78 359.61L839.26 528.58" stroke="hsl(228.5, 77.2%, 51.5%)" stroke-width="1.5"></path><path d="M688.78 359.61L998.59 368.78" stroke="hsl(228.5, 77.2%, 51.5%)" stroke-width="1.5"></path><path d="M675.42 515.15L675.42 515.15" stroke="hsl(228.5, 77.2%, 51.5%)" stroke-width="1.5"></path><path d="M675.42 515.15L653.12 676.1" stroke="hsl(228.5, 77.2%, 51.5%)" stroke-width="1.5"></path><path d="M653.12 676.1L653.12 676.1" stroke="hsl(228.5, 77.2%, 51.5%)" stroke-width="1.5"></path><path d="M653.12 676.1L839.26 528.58" stroke="hsl(228.5, 77.2%, 51.5%)" stroke-width="1.5"></path><path d="M839.26 528.58L839.26 528.58" stroke="hsl(228.5, 77.2%, 51.5%)" stroke-width="1.5"></path><path d="M839.26 528.58L992.94 548.49" stroke="hsl(228.5, 77.2%, 51.5%)" stroke-width="1.5"></path><path d="M839.26 528.58L675.42 515.15" stroke="hsl(228.5, 77.2%, 51.5%)" stroke-width="1.5"></path><path d="M839.26 528.58L818.36 709.14" stroke="hsl(228.5, 77.2%, 51.5%)" stroke-width="1.5"></path><path d="M839.26 528.58L938.01 685.43" stroke="hsl(228.5, 77.2%, 51.5%)" stroke-width="1.5"></path><path d="M992.94 548.49L992.94 548.49" stroke="hsl(228.5, 77.2%, 51.5%)" stroke-width="1.5"></path><path d="M992.94 548.49L1091.92 497.66" stroke="hsl(228.5, 77.2%, 51.5%)" stroke-width="1.5"></path><path d="M992.94 548.49L938.01 685.43" stroke="hsl(228.5, 77.2%, 51.5%)" stroke-width="1.5"></path><path d="M938.01 685.43L938.01 685.43" stroke="hsl(228.5, 77.2%, 51.5%)" stroke-width="1.5"></path><path d="M938.01 685.43L1104.32 658.99" stroke="hsl(228.5, 77.2%, 51.5%)" stroke-width="1.5"></path><path d="M1152.81 -81.53L1152.81 -81.53" stroke="hsl(228.5, 77.2%, 51.5%)" stroke-width="1.5"></path><path d="M1152.81 -81.53L1245.08 -89.65" stroke="hsl(228.5, 77.2%, 51.5%)" stroke-width="1.5"></path><path d="M1152.81 -81.53L1397.4 -102.17" stroke="hsl(228.5, 77.2%, 51.5%)" stroke-width="1.5"></path><path d="M1152.81 -81.53L1137.78 196.8" stroke="hsl(228.5, 77.2%, 51.5%)" stroke-width="1.5"></path><path d="M1152.81 -81.53L1408.31 42.95" stroke="hsl(228.5, 77.2%, 51.5%)" stroke-width="1.5"></path><path d="M1152.81 -81.53L1282.26 230.42" stroke="hsl(228.5, 77.2%, 51.5%)" stroke-width="1.5"></path><path d="M1129.66 380.29L1129.66 380.29" stroke="hsl(228.5, 77.2%, 51.5%)" stroke-width="1.5"></path><path d="M1129.66 380.29L1091.92 497.66" stroke="hsl(228.5, 77.2%, 51.5%)" stroke-width="1.5"></path><path d="M1091.92 497.66L1091.92 497.66" stroke="hsl(228.5, 77.2%, 51.5%)" stroke-width="1.5"></path><path d="M1104.32 658.99L1104.32 658.99" stroke="hsl(228.5, 77.2%, 51.5%)" stroke-width="1.5"></path><path d="M1104.32 658.99L992.94 548.49" stroke="hsl(228.5, 77.2%, 51.5%)" stroke-width="1.5"></path><path d="M1104.32 658.99L1091.92 497.66" stroke="hsl(228.5, 77.2%, 51.5%)" stroke-width="1.5"></path><path d="M1104.32 658.99L1269.23 688.89" stroke="hsl(228.5, 77.2%, 51.5%)" stroke-width="1.5"></path><path d="M1245.08 -89.65L1245.08 -89.65" stroke="hsl(228.5, 77.2%, 51.5%)" stroke-width="1.5"></path><path d="M1245.08 -89.65L1397.4 -102.17" stroke="hsl(228.5, 77.2%, 51.5%)" stroke-width="1.5"></path><path d="M1282.26 230.42L1282.26 230.42" stroke="hsl(228.5, 77.2%, 51.5%)" stroke-width="1.5"></path><path d="M1282.26 230.42L1423.72 196.03" stroke="hsl(228.5, 77.2%, 51.5%)" stroke-width="1.5"></path><path d="M1282.26 230.42L1388.45 355.12" stroke="hsl(228.5, 77.2%, 51.5%)" stroke-width="1.5"></path><path d="M1282.26 230.42L1129.66 380.29" stroke="hsl(228.5, 77.2%, 51.5%)" stroke-width="1.5"></path><path d="M1282.26 230.42L1408.31 42.95" stroke="hsl(228.5, 77.2%, 51.5%)" stroke-width="1.5"></path><path d="M1269.23 688.89L1269.23 688.89" stroke="hsl(228.5, 77.2%, 51.5%)" stroke-width="1.5"></path><path d="M1269.23 688.89L1415.69 706.82" stroke="hsl(228.5, 77.2%, 51.5%)" stroke-width="1.5"></path><path d="M1269.23 688.89L1457.84 533.9" stroke="hsl(228.5, 77.2%, 51.5%)" stroke-width="1.5"></path><path d="M1269.23 688.89L1091.92 497.66" stroke="hsl(228.5, 77.2%, 51.5%)" stroke-width="1.5"></path><path d="M1269.23 688.89L1575.74 697.32" stroke="hsl(228.5, 77.2%, 51.5%)" stroke-width="1.5"></path><path d="M1397.4 -102.17L1397.4 -102.17" stroke="hsl(228.5, 77.2%, 51.5%)" stroke-width="1.5"></path><path d="M1397.4 -102.17L1408.31 42.95" stroke="hsl(228.5, 77.2%, 51.5%)" stroke-width="1.5"></path><path d="M1397.4 -102.17L1288.54 76.28" stroke="hsl(228.5, 77.2%, 51.5%)" stroke-width="1.5"></path><path d="M1408.31 42.95L1408.31 42.95" stroke="hsl(228.5, 77.2%, 51.5%)" stroke-width="1.5"></path><path d="M1408.31 42.95L1423.72 196.03" stroke="hsl(228.5, 77.2%, 51.5%)" stroke-width="1.5"></path><path d="M1408.31 42.95L1551.98 98.18" stroke="hsl(228.5, 77.2%, 51.5%)" stroke-width="1.5"></path><path d="M1388.45 355.12L1388.45 355.12" stroke="hsl(228.5, 77.2%, 51.5%)" stroke-width="1.5"></path><path d="M1388.45 355.12L1423.72 196.03" stroke="hsl(228.5, 77.2%, 51.5%)" stroke-width="1.5"></path><path d="M1457.84 533.9L1457.84 533.9" stroke="hsl(228.5, 77.2%, 51.5%)" stroke-width="1.5"></path><path d="M1457.84 533.9L1557.43 561.09" stroke="hsl(228.5, 77.2%, 51.5%)" stroke-width="1.5"></path><path d="M1457.84 533.9L1415.69 706.82" stroke="hsl(228.5, 77.2%, 51.5%)" stroke-width="1.5"></path><path d="M1457.84 533.9L1388.45 355.12" stroke="hsl(228.5, 77.2%, 51.5%)" stroke-width="1.5"></path><path d="M1457.84 533.9L1575.74 697.32" stroke="hsl(228.5, 77.2%, 51.5%)" stroke-width="1.5"></path><path d="M1415.69 706.82L1415.69 706.82" stroke="hsl(228.5, 77.2%, 51.5%)" stroke-width="1.5"></path><path d="M1415.69 706.82L1575.74 697.32" stroke="hsl(228.5, 77.2%, 51.5%)" stroke-width="1.5"></path><path d="M1551.98 98.18L1551.98 98.18" stroke="hsl(228.5, 77.2%, 51.5%)" stroke-width="1.5"></path><path d="M1551.98 98.18L1555.12 236.52" stroke="hsl(228.5, 77.2%, 51.5%)" stroke-width="1.5"></path><path d="M1551.98 98.18L1423.72 196.03" stroke="hsl(228.5, 77.2%, 51.5%)" stroke-width="1.5"></path><path d="M1551.98 98.18L1397.4 -102.17" stroke="hsl(228.5, 77.2%, 51.5%)" stroke-width="1.5"></path><path d="M1551.98 98.18L1288.54 76.28" stroke="hsl(228.5, 77.2%, 51.5%)" stroke-width="1.5"></path><path d="M1555.12 236.52L1555.12 236.52" stroke="hsl(228.5, 77.2%, 51.5%)" stroke-width="1.5"></path><path d="M1555.12 236.52L1599 380.77" stroke="hsl(228.5, 77.2%, 51.5%)" stroke-width="1.5"></path><path d="M1599 380.77L1599 380.77" stroke="hsl(228.5, 77.2%, 51.5%)" stroke-width="1.5"></path><path d="M1599 380.77L1557.43 561.09" stroke="hsl(228.5, 77.2%, 51.5%)" stroke-width="1.5"></path><path d="M1599 380.77L1457.84 533.9" stroke="hsl(228.5, 77.2%, 51.5%)" stroke-width="1.5"></path><path d="M1599 380.77L1388.45 355.12" stroke="hsl(228.5, 77.2%, 51.5%)" stroke-width="1.5"></path><path d="M1557.43 561.09L1557.43 561.09" stroke="hsl(228.5, 77.2%, 51.5%)" stroke-width="1.5"></path><path d="M1557.43 561.09L1575.74 697.32" stroke="hsl(228.5, 77.2%, 51.5%)" stroke-width="1.5"></path><path d="M1557.43 561.09L1415.69 706.82" stroke="hsl(228.5, 77.2%, 51.5%)" stroke-width="1.5"></path><path d="M1575.74 697.32L1575.74 697.32" stroke="hsl(228.5, 77.2%, 51.5%)" stroke-width="1.5"></path><circle r="25" cx="-79.16" cy="538.14" fill="url(#SvgjsRadialGradient1001)"></circle><circle r="25" cx="388.62" cy="498.62" fill="url(#SvgjsRadialGradient1001)"></circle><circle r="25" cx="791.53" cy="370.75" fill="url(#SvgjsRadialGradient1001)"></circle><circle r="25" cx="818.36" cy="709.14" fill="url(#SvgjsRadialGradient1001)"></circle><circle r="25" cx="998.59" cy="368.78" fill="url(#SvgjsRadialGradient1001)"></circle><circle r="25" cx="1137.78" cy="196.8" fill="url(#SvgjsRadialGradient1001)"></circle><circle r="25" cx="1288.54" cy="76.28" fill="url(#SvgjsRadialGradient1001)"></circle><circle r="25" cx="1305.03" cy="530.88" fill="url(#SvgjsRadialGradient1001)"></circle><circle r="25" cx="1423.72" cy="196.03" fill="url(#SvgjsRadialGradient1001)"></circle><circle r="25" cx="1569.09" cy="-70.08" fill="url(#SvgjsRadialGradient1001)"></circle><circle r="5" cx="-93.72" cy="691.2" fill="#8b9ad9"></circle><circle r="5" cx="54.31" cy="490.12" fill="#8b9ad9"></circle><circle r="5" cx="241.7" cy="492.62" fill="#8b9ad9"></circle><circle r="5" cx="198.39" cy="662.48" fill="#8b9ad9"></circle><circle r="5" cx="370.03" cy="645.37" fill="#8b9ad9"></circle><circle r="5" cx="522.61" cy="516.75" fill="#8b9ad9"></circle><circle r="5" cx="493.27" cy="673.15" fill="#8b9ad9"></circle><circle r="5" cx="688.78" cy="359.61" fill="#8b9ad9"></circle><circle r="5" cx="675.42" cy="515.15" fill="#8b9ad9"></circle><circle r="5" cx="653.12" cy="676.1" fill="#8b9ad9"></circle><circle r="5" cx="839.26" cy="528.58" fill="#8b9ad9"></circle><circle r="5" cx="992.94" cy="548.49" fill="#8b9ad9"></circle><circle r="5" cx="938.01" cy="685.43" fill="#8b9ad9"></circle><circle r="5" cx="1152.81" cy="-81.53" fill="#8b9ad9"></circle><circle r="5" cx="1129.66" cy="380.29" fill="#8b9ad9"></circle><circle r="5" cx="1091.92" cy="497.66" fill="#8b9ad9"></circle><circle r="5" cx="1104.32" cy="658.99" fill="#8b9ad9"></circle><circle r="5" cx="1245.08" cy="-89.65" fill="#8b9ad9"></circle><circle r="5" cx="1282.26" cy="230.42" fill="#8b9ad9"></circle><circle r="5" cx="1269.23" cy="688.89" fill="#8b9ad9"></circle><circle r="5" cx="1397.4" cy="-102.17" fill="#8b9ad9"></circle><circle r="5" cx="1408.31" cy="42.95" fill="#8b9ad9"></circle><circle r="5" cx="1388.45" cy="355.12" fill="#8b9ad9"></circle><circle r="5" cx="1457.84" cy="533.9" fill="#8b9ad9"></circle><circle r="5" cx="1415.69" cy="706.82" fill="#8b9ad9"></circle><circle r="5" cx="1551.98" cy="98.18" fill="#8b9ad9"></circle><circle r="5" cx="1555.12" cy="236.52" fill="#8b9ad9"></circle><circle r="5" cx="1599" cy="380.77" fill="#8b9ad9"></circle><circle r="5" cx="1557.43" cy="561.09" fill="#8b9ad9"></circle><circle r="5" cx="1575.74" cy="697.32" fill="#8b9ad9"></circle></g><defs><mask id="SvgjsMask1000"><rect width="1440" height="560" fill="#ffffff"></rect></mask><radialGradient id="SvgjsRadialGradient1001"><stop stop-color="#ffffff" offset="0.1"></stop><stop stop-color="#1735b3" offset="0.2"></stop><stop stop-color="rgba(23, 53, 179, 0)" offset="1"></stop></radialGradient></defs></svg>